<?xml version="1.0" encoding="UTF-8" standalone="no"?><!DOCTYPE svg PUBLIC "-//W3C//DTD SVG 1.1//EN" "http://www.w3.org/Graphics/SVG/1.1/DTD/svg11.dtd"><svg width="100%" height="100%" viewBox="0 0 9553 4500" version="1.1" xmlns="http://www.w3.org/2000/svg" xmlns:xlink="http://www.w3.org/1999/xlink" xml:space="preserve" xmlns:serif="http://www.serif.com/" style="fill-rule:evenodd;clip-rule:evenodd;stroke-linejoin:round;stroke-miterlimit:2;"><rect id="Artboard1" x="0" y="0" width="9552.49" height="4500" style="fill:none;"/><g><g opacity="0.25"><path d="M7076.25,1426.91c-22.321,-175.219 -162.943,-318.073 -338.162,-342.626c-2.233,-0 -3.349,-0 -5.581,-1.116c-264.503,-33.482 -522.31,-107.141 -762.26,-222.093c-339.278,-161.827 -689.717,-242.183 -1060.24,-242.183c-78.124,0 -157.363,3.348 -236.602,11.161c-622.755,55.802 -1158.46,319.189 -1630.55,551.327c-226.558,111.605 -458.695,225.441 -638.379,277.896c25.669,5.58 50.222,11.16 75.891,18.973c75.891,23.436 155.131,34.597 235.486,34.597c95.98,-0 189.728,-21.205 275.664,-62.499c49.106,-23.437 98.212,-47.99 148.434,-72.543c455.347,-224.325 972.077,-477.668 1554.65,-530.122c72.543,-6.696 145.086,-10.044 216.513,-10.044c410.705,-0 795.741,108.256 1168.5,330.349c121.649,72.543 196.424,199.773 206.469,340.395l-0,4.464c15.624,194.192 175.219,351.555 370.527,363.831c247.763,15.625 451.999,-197.54 419.634,-449.767Zm-235.486,-29.017c79.239,156.247 -83.704,319.19 -239.95,239.95c-33.482,-16.74 -61.383,-44.642 -78.124,-78.123c-79.239,-156.247 83.704,-319.19 239.951,-239.95c33.481,17.857 61.382,45.758 78.123,78.123Z" style="fill:url(#_Linear1);fill-rule:nonzero;"/><path d="M5827.39,2003.91c-106.024,-406.241 -476.552,-707.574 -915.158,-707.574l-12.277,-0c-551.327,-0 -1060.24,249.994 -1552.42,492.177l-5.58,2.232c-22.321,11.16 -44.642,22.321 -66.963,33.481c-290.172,141.738 -620.522,156.247 -931.899,69.195c-50.223,-14.509 -103.793,-18.973 -158.479,-11.16c-179.684,22.32 -323.654,168.523 -343.743,348.206c-26.785,239.95 160.711,444.187 395.081,444.187c118.301,-0 224.325,-51.338 296.868,-133.926c130.578,-147.318 286.825,-270.083 467.624,-348.206c142.854,-61.383 289.056,-132.81 437.491,-206.469l5.58,-2.232c469.856,-231.022 955.336,-469.856 1456.44,-469.856l11.161,0c401.777,0 728.778,327.002 728.778,728.779c0,78.123 -12.276,154.014 -36.829,227.673c1.116,0 1.116,-1.116 2.232,-1.116c161.827,-65.847 257.807,-234.37 232.138,-407.357c-2.232,-22.321 -6.697,-42.41 -10.045,-58.034Zm-3432.96,190.844c79.239,156.246 -83.704,319.189 -239.95,239.95c-33.482,-16.741 -61.383,-44.642 -78.124,-78.124c-79.239,-156.246 83.704,-319.189 239.95,-239.95c33.482,16.741 61.383,44.642 78.124,78.124Z" style="fill:url(#_Linear2);fill-rule:nonzero;"/><path d="M7040.54,2987.15l-2.232,0c-99.328,0 -197.54,25.669 -286.824,69.195c-44.642,21.205 -89.284,43.526 -135.042,65.847c-455.347,224.325 -972.076,477.668 -1554.65,530.122c-72.543,6.696 -145.086,10.044 -216.513,10.044c-410.705,0 -795.742,-108.256 -1168.5,-330.349c-121.649,-72.543 -196.425,-199.773 -206.469,-340.395l-0,-4.464c-15.625,-194.192 -175.219,-351.555 -370.528,-363.831c-270.083,-17.857 -487.712,235.486 -408.473,513.381c42.41,150.667 176.336,260.039 331.466,279.012l3.348,0c256.691,30.133 507.802,99.328 739.939,213.165c344.859,169.639 701.994,252.227 1080.33,252.227c78.123,-0 157.363,-3.348 236.602,-11.161c622.754,-55.802 1158.46,-319.189 1630.55,-552.443c226.557,-111.605 458.695,-225.442 638.378,-277.896c-25.669,-5.58 -50.222,-11.16 -75.891,-18.973c-75.891,-22.32 -155.13,-33.481 -235.486,-33.481Zm-3807.95,-47.99c79.239,156.247 -83.704,319.189 -239.95,239.95c-33.482,-16.741 -61.383,-44.642 -78.123,-78.123c-79.24,-156.247 83.703,-319.19 239.95,-239.95c33.481,17.856 60.266,44.642 78.123,78.123Z" style="fill:url(#_Linear3);fill-rule:nonzero;"/><path d="M7519.32,1826.46c-118.301,0 -224.325,51.338 -296.868,133.926c-130.578,147.318 -286.824,270.083 -467.624,348.206c-142.854,61.383 -289.056,132.81 -437.49,206.469l-5.58,2.232c-469.856,231.022 -955.337,469.856 -1456.44,469.856l-11.16,0c-401.777,0 -728.779,-327.002 -728.779,-728.779c0,-78.123 12.277,-154.014 36.83,-227.673c-1.116,-0 -1.116,1.116 -2.232,1.116c-166.291,68.079 -262.271,244.414 -231.022,420.75c3.348,17.856 6.696,32.365 10.044,44.641c106.025,406.242 476.552,707.574 915.159,707.574l12.276,0c551.328,0 1060.25,-249.994 1552.42,-492.177l5.58,-2.232c22.321,-11.16 44.642,-22.321 66.963,-33.481c290.172,-141.738 620.522,-156.247 931.899,-69.195c50.222,14.509 103.792,18.973 158.479,11.161c179.683,-22.321 323.653,-168.524 343.742,-348.207c26.785,-239.95 -160.711,-444.187 -396.197,-444.187Zm176.336,433.026c-13.393,70.311 -70.311,128.346 -141.738,141.738c-126.113,24.553 -236.602,-84.819 -212.049,-212.049c13.393,-70.311 70.311,-128.345 141.738,-141.738c127.229,-24.553 236.602,84.82 212.049,212.049Z" style="fill:url(#_Linear4);fill-rule:nonzero;"/></g><g transform="matrix(7.66463,0,1.54473e-15,7.66463,-2319.18,-5150.39)"><g transform="matrix(196.21,0,0,196.21,513.105,1017.17)"><path d="M0.502,-0.553c-0.052,-0.051 -0.12,-0.08 -0.191,-0.08l-0.217,0.001l-0,0.052l0.051,0l0,0.278l0.083,-0l0,-0.196l0.084,0c0.035,0 0.068,0.015 0.095,0.041c0.032,0.032 0.051,0.077 0.051,0.124c-0,0.089 -0.067,0.165 -0.147,0.165l-0.083,-0l0,0.134l0.084,0c0.154,0 0.28,-0.134 0.28,-0.299c0,-0.083 -0.033,-0.163 -0.09,-0.22Zm-0.393,0.01l-0.052,0l0,0.547l0.135,0l-0,-0.27l-0.083,0l-0,-0.277Z" style="fill:#111;fill-rule:nonzero;"/></g><g transform="matrix(196.21,0,0,196.21,649.864,1017.17)"><path d="M0.088,-0.624l0,0.11l0.098,0l0,0.171l0.037,0l0,-0.281l-0.135,0Zm0.062,0.147l-0.098,-0l-0,0.418l0.134,0.058l0,-0.305l-0.036,0l-0,-0.171Z" style="fill:#111;fill-rule:nonzero;"/></g><g transform="matrix(196.21,0,0,196.21,708.727,1017.17)"><path d="M0.341,-0.17l-0.024,-0.001l0,0.043l0.025,0c0.048,0 0.094,-0.018 0.129,-0.052c0.016,-0.016 0.029,-0.035 0.038,-0.055l0.093,0l0.001,-0.122l-0.199,-0.001l-0.049,0.122l0.106,0c-0.026,0.04 -0.07,0.066 -0.12,0.066Zm0.191,-0.019c-0.04,0.062 -0.11,0.103 -0.189,0.103c-0.007,-0 -0.014,-0 -0.021,-0.001l-0.025,-0.002l-0.003,-0.002l0,-0.05c-0.037,-0.011 -0.07,-0.032 -0.094,-0.063c-0.028,-0.038 -0.041,-0.084 -0.034,-0.132c0.006,-0.047 0.03,-0.089 0.068,-0.117c0.037,-0.029 0.084,-0.041 0.131,-0.035c0.047,0.007 0.089,0.031 0.118,0.068l0.107,-0.082c-0.105,-0.137 -0.301,-0.163 -0.438,-0.058c-0.066,0.05 -0.109,0.124 -0.12,0.207c-0.011,0.083 0.011,0.165 0.061,0.23c0.051,0.066 0.124,0.109 0.207,0.12c0.014,0.002 0.028,0.003 0.043,0.003c0.068,-0 0.133,-0.022 0.188,-0.064c0.043,-0.033 0.076,-0.076 0.097,-0.125l-0.096,0Z" style="fill:#111;fill-rule:nonzero;"/></g><path d="M869.913,894.762l-0,21.603l19.2,-0l0,33.603l7.202,-0l-0,-55.206l-26.402,0Zm12,28.802l-19.202,0l0,82.04l26.402,11.425l0,-59.861l-7.2,-0l0,-33.604Z" style="fill:url(#_Linear5);fill-rule:nonzero;"/><path d="M1003,914.923c-10.195,-10.093 -23.425,-15.652 -37.395,-15.652l-42.629,0.093l0,10.611l13.467,-0l0,58.205l12.935,-0l-0,-42.508l16.37,0c6.823,0 13.454,2.848 18.696,8.034c6.285,6.197 9.891,15.062 9.891,24.322c0,17.541 -13.09,32.355 -28.755,32.355l-11.501,0l-0,26.402l11.669,0c30.322,0 54.989,-26.356 54.989,-58.757c-0,-16.287 -6.473,-32.002 -17.737,-43.105l-0,-0Zm-71.356,-0.149l-8.668,-0l0,102.199l26.302,-0l0,-43.994l-17.634,0l0,-58.205Z" style="fill:url(#_Linear6);fill-rule:nonzero;"/><g transform="matrix(196.21,0,0,196.21,1040.71,1017.17)"><path d="M0.292,-0.307l0.06,0.13l-0.092,-0l-0.014,0.03l0.268,0l-0.222,-0.482l-0.177,0.385l0.149,0l0.028,-0.063Zm0.233,0.185l-0.317,-0l0.044,-0.097l-0.148,-0l-0.1,0.219l0.148,-0l0.019,-0.043l0.243,0l-0,0l0.019,0.043l0.124,-0.054l-0.032,-0.068Z" style="fill:#111;fill-rule:nonzero;"/></g><g transform="matrix(196.21,0,0,196.21,1165.11,1017.17)"><path d="M0.273,-0.533l-0.148,-0l0,-0.067l-0.113,-0l-0,0.134l0.193,0l0,0.465l0.135,-0l-0,-0.332l-0.067,0l-0,-0.2Zm-0.123,-0.067l-0,0.042l0.147,0l0,0.201l0.043,-0l-0,-0.109l0.14,0l0.053,-0.134l-0.383,-0Z" style="fill:#111;fill-rule:nonzero;"/></g><g transform="matrix(196.21,0,0,196.21,1283.23,1017.17)"><path d="M0.057,-0.599l0,0.085l0.098,0l0,0.184l0.037,-0l-0,-0.269l-0.135,-0Zm0.074,0.11l-0.074,-0l0,0.43l0.135,0.058l-0,-0.305l-0.061,0l-0,-0.183Z" style="fill:#111;fill-rule:nonzero;"/></g></g></g><defs><linearGradient id="_Linear1" x1="0" y1="0" x2="1" y2="0" gradientUnits="userSpaceOnUse" gradientTransform="matrix(5091.66,0,0,3262.21,1838.19,2250)"><stop offset="0" style="stop-color:#00fe8f;stop-opacity:1"/><stop offset="1" style="stop-color:#00a1ff;stop-opacity:1"/></linearGradient><linearGradient id="_Linear2" x1="0" y1="0" x2="1" y2="0" gradientUnits="userSpaceOnUse" gradientTransform="matrix(5091.66,0,0,3262.21,1838.19,2250)"><stop offset="0" style="stop-color:#00fe8f;stop-opacity:1"/><stop offset="1" style="stop-color:#00a1ff;stop-opacity:1"/></linearGradient><linearGradient id="_Linear3" x1="0" y1="0" x2="1" y2="0" gradientUnits="userSpaceOnUse" gradientTransform="matrix(5091.66,0,0,3262.21,1838.19,2250)"><stop offset="0" style="stop-color:#00fe8f;stop-opacity:1"/><stop offset="1" style="stop-color:#00a1ff;stop-opacity:1"/></linearGradient><linearGradient id="_Linear4" x1="0" y1="0" x2="1" y2="0" gradientUnits="userSpaceOnUse" gradientTransform="matrix(5091.66,0,0,3262.21,1838.19,2250)"><stop offset="0" style="stop-color:#00fe8f;stop-opacity:1"/><stop offset="1" style="stop-color:#00a1ff;stop-opacity:1"/></linearGradient><linearGradient id="_Linear5" x1="0" y1="0" x2="1" y2="0" gradientUnits="userSpaceOnUse" gradientTransform="matrix(188.166,0,0,183.064,852.549,953.11)"><stop offset="0" style="stop-color:#009956;stop-opacity:1"/><stop offset="1" style="stop-color:#006199;stop-opacity:1"/></linearGradient><linearGradient id="_Linear6" x1="0" y1="0" x2="1" y2="0" gradientUnits="userSpaceOnUse" gradientTransform="matrix(188.166,0,0,183.064,852.549,953.11)"><stop offset="0" style="stop-color:#009956;stop-opacity:1"/><stop offset="1" style="stop-color:#006199;stop-opacity:1"/></linearGradient></defs></svg>